<svg width="37" height="9" viewBox="0 0 37 9" fill="none" xmlns="http://www.w3.org/2000/svg">
<path d="M18.4352 6.45817C19.5168 6.45817 20.3936 5.58139 20.3936 4.49984C20.3936 3.41828 19.5168 2.5415 18.4352 2.5415C17.3537 2.5415 16.4769 3.41828 16.4769 4.49984C16.4769 5.58139 17.3537 6.45817 18.4352 6.45817Z" stroke="#757474" stroke-width="3.91667" stroke-linecap="round" stroke-linejoin="round"/>
<path d="M32.1436 6.45817C33.2251 6.45817 34.1019 5.58139 34.1019 4.49984C34.1019 3.41828 33.2251 2.5415 32.1436 2.5415C31.062 2.5415 30.1852 3.41828 30.1852 4.49984C30.1852 5.58139 31.062 6.45817 32.1436 6.45817Z" stroke="#757474" stroke-width="3.91667" stroke-linecap="round" stroke-linejoin="round"/>
<path d="M4.72689 6.45817C5.80845 6.45817 6.68522 5.58139 6.68522 4.49984C6.68522 3.41828 5.80845 2.5415 4.72689 2.5415C3.64533 2.5415 2.76855 3.41828 2.76855 4.49984C2.76855 5.58139 3.64533 6.45817 4.72689 6.45817Z" stroke="#757474" stroke-width="3.91667" stroke-linecap="round" stroke-linejoin="round"/>
</svg>
