<svg width="17" height="22" viewBox="0 0 17 22" fill="none" xmlns="http://www.w3.org/2000/svg">
<path d="M6.60058 15.1424C6.60058 14.2283 7.34163 13.4872 8.25576 13.4872C9.16989 13.4872 9.91094 14.2283 9.91094 15.1424C9.91094 16.0566 9.16989 16.7976 8.25576 16.7976C7.34163 16.7976 6.60058 16.0566 6.60058 15.1424Z" fill="#CBCBCB"/>
<path fill-rule="evenodd" clip-rule="evenodd" d="M3.42446 9.18063L3.07638 6.04795C3.03176 5.64632 3.03176 5.24098 3.07638 4.83935L3.1015 4.61325C3.36797 2.21502 5.25334 0.317457 7.6498 0.0355206C8.05237 -0.0118402 8.4591 -0.0118402 8.86167 0.0355206C11.2581 0.317458 13.1435 2.21502 13.41 4.61325L13.4351 4.83935C13.4797 5.24098 13.4797 5.64632 13.4351 6.04795L13.087 9.18062L13.8446 9.2411C15.0394 9.33648 16.0149 10.2346 16.2086 11.4174C16.6126 13.8843 16.6126 16.4005 16.2086 18.8675C16.0149 20.0503 15.0394 20.9484 13.8446 21.0437L12.1937 21.1755C9.57261 21.3848 6.93897 21.3848 4.31785 21.1755L2.66694 21.0437C1.4722 20.9484 0.49663 20.0503 0.302957 18.8675C-0.100986 16.4005 -0.100986 13.8843 0.302957 11.4174C0.49663 10.2346 1.4722 9.33648 2.66694 9.2411L3.42446 9.18063ZM7.84319 1.67936C8.11727 1.64712 8.39419 1.64712 8.66827 1.67936C10.2999 1.87132 11.5835 3.16324 11.7649 4.79604L11.79 5.02213C11.8212 5.30228 11.8212 5.58502 11.79 5.86517L11.4356 9.05464C9.3179 8.91828 7.19357 8.91828 5.07583 9.05465L4.72144 5.86517C4.69031 5.58502 4.69031 5.30228 4.72144 5.02213L4.74656 4.79604C4.92798 3.16324 6.2116 1.87132 7.84319 1.67936ZM12.062 10.7592C9.52856 10.557 6.98302 10.557 4.44956 10.7592L2.79865 10.891C2.36287 10.9258 2.00703 11.2534 1.93638 11.6848C1.56144 13.9746 1.56144 16.3102 1.93638 18.6C2.00703 19.0314 2.36287 19.359 2.79865 19.3938L4.44956 19.5256C6.98301 19.7279 9.52856 19.7279 12.062 19.5256L13.7129 19.3938C14.1487 19.359 14.5045 19.0314 14.5752 18.6C14.9501 16.3102 14.9501 13.9746 14.5752 11.6848C14.5045 11.2534 14.1487 10.9258 13.7129 10.891L12.062 10.7592Z" fill="#CBCBCB"/>
</svg>
