<svg width="21" height="16" viewBox="0 0 21 16" fill="none" xmlns="http://www.w3.org/2000/svg">
<path fill-rule="evenodd" clip-rule="evenodd" d="M0.2084 4.02834C-0.0945649 6.71686 -0.0810601 9.8176 0.34052 12.4952C0.57379 13.9768 1.83983 15.1126 3.40262 15.2423L5.03588 15.3779C8.44146 15.6607 11.8663 15.6607 15.2719 15.3779L16.9052 15.2423C18.4679 15.1126 19.734 13.9768 19.9673 12.4952C20.3888 9.81759 20.4024 6.71703 20.0994 4.0285C20.0602 3.71682 20.0162 3.40555 19.9673 3.0948C19.734 1.61323 18.4679 0.477408 16.9052 0.347659L15.2719 0.212059C11.8663 -0.0706864 8.44146 -0.0706863 5.03588 0.212059L3.40262 0.347659C1.83983 0.477409 0.57379 1.61323 0.34052 3.0948C0.291603 3.40549 0.247563 3.71671 0.2084 4.02834ZM5.17637 1.75558C8.48847 1.4806 11.8193 1.4806 15.1314 1.75558L16.7647 1.89118C17.5805 1.95891 18.2413 2.55181 18.3631 3.3252C18.3757 3.40551 18.388 3.48586 18.4 3.56625L12.386 6.75732C10.9978 7.49389 9.30989 7.49389 7.92172 6.75732L1.90777 3.56629C1.91973 3.48589 1.93203 3.40552 1.94468 3.3252C2.06645 2.55181 2.72732 1.95891 3.5431 1.89118L5.17637 1.75558ZM18.5985 5.23331C18.8083 7.57566 18.7298 9.93567 18.3631 12.2648C18.2413 13.0382 17.5805 13.6311 16.7647 13.6988L15.1314 13.8344C11.8193 14.1094 8.48847 14.1094 5.17637 13.8344L3.5431 13.6988C2.72732 13.6311 2.06645 13.0382 1.94468 12.2648C1.57797 9.93568 1.4995 7.57568 1.70927 5.23335L7.13392 8.11169C9.01202 9.10822 11.2957 9.10822 13.1738 8.11169L18.5985 5.23331Z" fill="#CBCBCB"/>
</svg>
