<svg width="19" height="21" viewBox="0 0 19 21" fill="none" xmlns="http://www.w3.org/2000/svg">
<path fill-rule="evenodd" clip-rule="evenodd" d="M4.17742 5.07258C4.17742 2.27107 6.44849 0 9.25 0C12.0515 0 14.3226 2.27107 14.3226 5.07258C14.3226 7.87409 12.0515 10.1452 9.25 10.1452C6.44849 10.1452 4.17742 7.87409 4.17742 5.07258ZM9.25 1.79032C7.43726 1.79032 5.96774 3.25984 5.96774 5.07258C5.96774 6.88532 7.43726 8.35484 9.25 8.35484C11.0627 8.35484 12.5323 6.88532 12.5323 5.07258C12.5323 3.25984 11.0627 1.79032 9.25 1.79032Z" fill="#B4B4B4"/>
<path fill-rule="evenodd" clip-rule="evenodd" d="M4.47581 13.7258C2.99266 13.7258 1.79032 14.9281 1.79032 16.4113V17.8296C1.79032 17.8512 1.80597 17.8696 1.82729 17.873C6.74322 18.6756 11.7568 18.6756 16.6727 17.873C16.694 17.8696 16.7097 17.8512 16.7097 17.8296V16.4113C16.7097 14.9281 15.5073 13.7258 14.0242 13.7258H13.6174C13.5859 13.7258 13.5546 13.7308 13.5247 13.7405L12.4917 14.0779C10.3853 14.7657 8.11471 14.7657 6.0083 14.0779L4.97527 13.7405C4.94537 13.7308 4.91411 13.7258 4.88265 13.7258H4.47581ZM0 16.4113C0 13.9394 2.00389 11.9355 4.47581 11.9355H4.88265C5.10285 11.9355 5.32167 11.9703 5.53099 12.0387L6.56402 12.376C8.30933 12.9459 10.1907 12.9459 11.936 12.376L12.969 12.0387C13.1783 11.9703 13.3972 11.9355 13.6174 11.9355H14.0242C16.4961 11.9355 18.5 13.9394 18.5 16.4113V17.8296C18.5 18.7286 17.8485 19.4951 16.9612 19.64C11.8542 20.4738 6.6458 20.4738 1.53881 19.64C0.651538 19.4951 0 18.7286 0 17.8296V16.4113Z" fill="#B4B4B4"/>
</svg>
