<svg width="17" height="17" viewBox="0 0 17 17" fill="none" xmlns="http://www.w3.org/2000/svg">
<path fill-rule="evenodd" clip-rule="evenodd" d="M4.35102 4.99179C3.2971 4.96827 2.46175 4.09493 2.48508 3.04101C2.50842 1.98708 3.38161 1.15157 4.43554 1.17473C5.48946 1.19788 6.32513 2.07092 6.30216 3.12486C6.29113 3.63121 6.07933 4.11242 5.71339 4.46257C5.34745 4.81271 4.85737 5.00309 4.35102 4.99179V4.99179Z" stroke="#909090" stroke-width="1.5" stroke-linecap="round" stroke-linejoin="round"/>
<path fill-rule="evenodd" clip-rule="evenodd" d="M13.1207 11.5483C14.1748 11.5712 15.0107 12.4443 14.9877 13.4984C14.9647 14.5525 14.0916 15.3883 13.0376 15.3653C11.9835 15.3424 11.1476 14.4693 11.1706 13.4152C11.1936 12.3611 12.0667 11.5253 13.1207 11.5483V11.5483Z" stroke="#909090" stroke-width="1.5" stroke-linecap="round" stroke-linejoin="round"/>
<path d="M13.0893 7.72906C13.0803 8.14318 13.4087 8.4862 13.8228 8.49522C14.2369 8.50425 14.5799 8.17586 14.5889 7.76174L13.0893 7.72906ZM13.8765 6.03181L14.6263 6.04815L14.6264 6.04381L13.8765 6.03181ZM11.1648 3.23107L11.1485 3.9809L11.1526 3.98097L11.1648 3.23107ZM6.31833 2.37528C5.90422 2.36625 5.56119 2.69464 5.55217 3.10876C5.54314 3.52287 5.87154 3.86589 6.28565 3.87492L6.31833 2.37528ZM13.3205 7.20364C13.0213 7.49009 13.0109 7.96485 13.2974 8.26405C13.5838 8.56326 14.0586 8.5736 14.3578 8.28716L13.3205 7.20364ZM16.3079 6.4202C16.6071 6.13376 16.6175 5.659 16.331 5.3598C16.0446 5.06059 15.5698 5.05024 15.2706 5.33669L16.3079 6.4202ZM13.2974 8.26405C13.5838 8.56326 14.0586 8.5736 14.3578 8.28716C14.657 8.00072 14.6673 7.52596 14.3809 7.22675L13.2974 8.26405ZM12.5139 5.27661C12.2275 4.97741 11.7527 4.96706 11.4535 5.25351C11.1543 5.53995 11.144 6.01471 11.4304 6.31391L12.5139 5.27661ZM4.38162 8.81261C4.39065 8.39849 4.06226 8.05547 3.64814 8.04645C3.23403 8.03742 2.891 8.36581 2.88198 8.77993L4.38162 8.81261ZM3.59448 10.5089L2.84465 10.4925L2.84458 10.4969L3.59448 10.5089ZM6.30611 13.3096L6.32245 12.5598L6.31835 12.5597L6.30611 13.3096ZM11.1526 14.1654C11.5667 14.1744 11.9098 13.846 11.9188 13.4319C11.9278 13.0178 11.5994 12.6748 11.1853 12.6658L11.1526 14.1654ZM4.15047 9.33703C4.44968 9.05058 4.46002 8.57582 4.17358 8.27662C3.88714 7.97741 3.41238 7.96707 3.11317 8.25351L4.15047 9.33703ZM1.16304 10.1205C0.863832 10.4069 0.853486 10.8817 1.13993 11.1809C1.42637 11.4801 1.90113 11.4904 2.20034 11.204L1.16304 10.1205ZM4.17358 8.27662C3.88714 7.97741 3.41238 7.96707 3.11317 8.25351C2.81397 8.53995 2.80362 9.01471 3.09007 9.31392L4.17358 8.27662ZM4.95702 11.2641C5.24346 11.5633 5.71823 11.5736 6.01743 11.2872C6.31663 11.0007 6.32698 10.526 6.04054 10.2268L4.95702 11.2641ZM14.5889 7.76174L14.6263 6.04815L13.1266 6.01547L13.0893 7.72906L14.5889 7.76174ZM14.6264 6.04381C14.6573 4.10765 13.1132 2.51279 11.1771 2.48117L11.1526 3.98097C12.2606 3.99906 13.1443 4.91178 13.1266 6.01981L14.6264 6.04381ZM11.1812 2.48124L6.31833 2.37528L6.28565 3.87492L11.1485 3.98089L11.1812 2.48124ZM14.3578 8.28716L16.3079 6.4202L15.2706 5.33669L13.3205 7.20364L14.3578 8.28716ZM14.3809 7.22675L12.5139 5.27661L11.4304 6.31391L13.2974 8.26405L14.3809 7.22675ZM2.88198 8.77993L2.84466 10.4925L4.3443 10.5252L4.38162 8.81261L2.88198 8.77993ZM2.84458 10.4969C2.8136 12.433 4.35771 14.0279 6.29386 14.0595L6.31835 12.5597C5.21033 12.5416 4.32666 11.6289 4.34439 10.5209L2.84458 10.4969ZM6.28977 14.0594L11.1526 14.1654L11.1853 12.6658L6.32245 12.5598L6.28977 14.0594ZM3.11317 8.25351L1.16304 10.1205L2.20034 11.204L4.15047 9.33703L3.11317 8.25351ZM3.09007 9.31392L4.95702 11.2641L6.04054 10.2268L4.17358 8.27662L3.09007 9.31392Z" fill="#909090"/>
</svg>
