<svg width="34" height="34" viewBox="0 0 34 34" fill="none" xmlns="http://www.w3.org/2000/svg">
<path fill-rule="evenodd" clip-rule="evenodd" d="M29.4635 17.1303C29.4949 17.0382 29.499 16.9397 29.4741 16.8457C28.8802 14.6201 17.8559 8.29342 14.3916 7.22972C13.4892 6.95252 12.8352 7.06414 12.4513 7.56051C11.3385 8.99719 13.6366 13.4646 14.9778 15.8006L21.9258 16.0446C22.3284 16.0587 22.6433 16.3974 22.6292 16.8012C22.6152 17.205 22.2774 17.5209 21.8748 17.5068L14.8603 17.2597C13.3506 19.5262 10.8426 23.7129 11.8371 25.1999C11.8744 25.2557 11.9152 25.3082 11.9596 25.356C12.327 25.751 12.9287 25.8549 13.749 25.6649C17.2767 24.8482 28.7148 19.3117 29.4635 17.1303Z" fill="#DDDDE4"/>
</svg>
